<?xml version="1.0" encoding="UTF-8"?>
<svg id="_Слой_1" data-name="Слой 1" xmlns="http://www.w3.org/2000/svg" viewBox="0 0 570.575108 120.613652">
  <defs>
    <style>
      .cls-1 {
        fill: #df4613;
      }

      .cls-2 {
        fill: #f7ab00;
      }

      .cls-3 {
        fill: #369449;
      }

      .cls-4 {
        fill: #ea7aad;
      }

      .cls-5 {
        fill: #f3dfad;
      }

      .cls-6 {
        fill: #4faa33;
      }

      .cls-7 {
        fill: #b61667;
      }

      .cls-8 {
        fill: #009339;
      }
    </style>
  </defs>
  <g>
    <path class="cls-3" d="m151.775409,26.673812c-19.699787,1.995513-24.652348,24.884736-20.481799,40.946722,1.825229,7.029545,12.721758,4.049334,10.890748-3.002446-2.297264-8.847517-1.666928-24.966503,10.148649-26.699291,4.635495-.679825,8.319664,2.998269,9.984441,6.980561,2.559523,6.122562.667379,13.17122-1.30206,19.15877-2.276252,6.920438,8.626478,9.886558,10.89079,3.002446,3.005062-9.136273,4.383825-19.13662.070839-28.095395-3.656956-7.596129-11.573189-13.165397-20.201608-12.291366Z"/>
    <path class="cls-4" d="m214.311362,40.810195c-2.948821-6.135599-7.22105-13.431328-14.980838-13.436517-7.62465-.005105-11.58361,6.937695-14.240342,13.06667-3.362378,7.756877-5.947005,15.743105-7.653298,24.025979-1.461331,7.09397,9.422962,10.127806,10.890748,3.002446,1.212868-5.8876,2.823302-11.671368,4.923027-17.306539.726995-1.95117,3.725812-11.458851,6.073452-11.554372,2.335362-.095014,5.714152,8.87587,6.530255,10.694602,2.404598,5.358777,4.265226,10.952136,5.799843,16.616672,1.898473,7.007563,12.796942,4.033554,10.890748-3.002446-2.060529-7.605791-4.81949-15.002862-8.233594-22.106494Z"/>
    <path class="cls-3" d="m469.591519,39.383081c-2.807396-5.993373-7.232357-12.899846-14.767478-12.635308-7.370027.258716-11.267979,6.942251-13.977618,12.893265-3.500048,7.68684-6.227576,15.645686-8.092043,23.884174-1.601828,7.077853,9.284448,10.099918,10.890748,3.002446,1.326193-5.859923,3.042401-11.619937,5.25794-17.207727,1.036509-2.614161,2.162252-5.23984,3.491736-7.721858.505365-.943393,1.509598-3.250993,2.817058-3.59367-.193573.079868.332592.225638.512538.351578.907362.635103,1.538541,1.770887,2.079009,2.695463,1.405681,2.404851,2.546824,5.006186,3.622528,7.570392,2.312495,5.512521,4.117936,11.225703,5.569353,17.020567,1.764938,7.046463,12.65999,4.061147,10.89079-3.002446-2.006314-8.010066-4.791433-15.778208-8.294561-23.256877Z"/>
    <path class="cls-2" d="m263.160942,40.113662c-2.850726-5.947849-7.072115-13.509002-14.720604-13.201175-7.311086.294241-11.349534,8.045422-14.228655,13.758098-3.511861,6.968283-5.958101,14.38856-7.204722,22.089365-.486801,3.007129.779438,6.077038,3.944151,6.946597,2.693438.740074,6.456463-.916138,6.946597-3.944151.891329-5.505982,2.309583-10.959435,4.51217-16.095485.956515-2.230348,2.074579-4.399857,3.278966-6.505615.557598-.974826,2.222754-4.53643,3.244074-4.939903.117755.112481.270487.301835.455115.613923.524646.886815,1.227677,1.71106,1.750425,2.625848,1.278095,2.236804,2.44219,4.555838,3.445199,6.929931,2.229083,5.27604,3.666871,10.881297,4.582545,16.523514.488911,3.012825,4.233582,4.689752,6.946597,3.944151,3.202938-.880191,4.434538-3.924912,3.944151-6.946597-1.231094-7.585834-3.574599-14.868568-6.89601-21.798499Zm-14.250763-1.913662c-.350524.019745-.316096-.286098,0,0h0Z"/>
    <path class="cls-2" d="m245.036487,48.434128c-1.43416.795134-2.449109,2.032557-3.031347,3.439166-.759651.98474-1.359946,2.24444-1.222108,3.474438.148597,1.326151.312341,2.399577.972463,3.585611.5249.942971,1.225061,1.67427,2.06209,2.320975,1.936445,1.496054,4.13148,1.955853,6.536752,1.529343,1.970747-.349469,3.758299-1.776583,4.785147-3.461654,1.10874-1.819491,1.326952-3.891412.946347-5.952701-.90116-4.880836-6.861286-7.257123-11.049344-4.935178Zm6.843482,5.691454c.014007.033289.028099.066493.042107.09974.017973.133704.035947.267492.05392.401195-.028057-.169777-.059827-.337023-.096027-.500935Z"/>
    <path class="cls-2" d="m419.429645,59.44733c4.2547-8.159363,3.5177-17.440369,2.405151-26.255981-.381836-3.025269-2.322144-5.647095-5.647095-5.647095-2.755005,0-6.031616,2.60022-5.647095,5.647095.778137,6.166138,1.956116,13.138123-.258972,19.14386-1.325256,3.592957-4.648621,7.76239-8.862244,7.673279-4.252686-.089966-7.067932-4.419312-8.025574-8.134705-1.630981-6.327454.776062-13.169678,2.59314-19.189392,2.104919-6.973389-8.792542-9.953613-10.890747-3.002441-2.597961,8.606873-5.218689,18.280396-1.988464,27.096802,2.773315,7.569275,8.997375,13.827454,17.328979,14.47644,5.968079.464905,11.653015-2.564148,15.625854-6.977783l2.038757-2.618896c.485229-.718872.934509-1.455872,1.328308-2.211182Z"/>
    <path class="cls-2" d="m428.917776,60.902981c-1.160684-4.366368-6.577753-6.536101-10.417385-4.12555-.223015.140048-.433144.296826-.636435.46095l-1.887828,2.425019c-.148808.317059-.274502.643556-.373462.980395-.65972,1.144859-.879796,2.543591-.569067,4.001044.827631,3.881567,5.255093,6.240857,8.977001,5.224291,3.842627-1.049515,5.904526-5.214288,4.907176-8.966149Z"/>
    <path class="cls-4" d="m515.877885,59.44733c4.2547-8.159363,3.5177-17.440369,2.405151-26.255981-.381836-3.025269-2.322144-5.647095-5.647095-5.647095-2.755005,0-6.031616,2.60022-5.647095,5.647095.778137,6.166138,1.956116,13.138123-.258972,19.14386-1.325256,3.592957-4.648621,7.76239-8.862244,7.673279-4.252686-.089966-7.067932-4.419312-8.025574-8.134705-1.630981-6.327454.776062-13.169678,2.59314-19.189392,2.104919-6.973389-8.792542-9.953613-10.890747-3.002441-2.597961,8.606873-5.218689,18.280396-1.988464,27.096802,2.773315,7.569275,8.997375,13.827454,17.328979,14.47644,5.968079.464905,11.653015-2.564148,15.625854-6.977783l2.038757-2.618896c.485229-.718872.934509-1.455872,1.328308-2.211182Z"/>
    <path class="cls-4" d="m525.366016,60.902981c-1.160684-4.366368-6.577753-6.536101-10.417385-4.12555-.223015.140048-.433144.296826-.636435.46095l-1.887828,2.425019c-.148808.317059-.274502.643556-.373462.980395-.65972,1.144859-.879796,2.543591-.569067,4.001044.827631,3.881567,5.255093,6.240857,8.977001,5.224291,3.842627-1.049515,5.904526-5.214288,4.907176-8.966149Z"/>
    <path class="cls-2" d="m545.456114,44.704729c-1.526052.958076-2.628464,2.470247-3.129399,4.175401-.712523,1.236368-.950144,2.746979-.614556,4.32096.893776,4.19194,5.675168,6.73986,9.694672,5.642048,4.149833-1.133464,6.376595-5.631163,5.29954-9.682985-1.253498-4.715531-7.103632-7.058699-11.250258-4.455423Z"/>
    <path class="cls-3" d="m310.192254,53.381583c-2.859924-1.672793-5.922112-.444399-7.726289,2.02589-5.834524,7.988675-18.775928,3.605019-19.004182-6.08535-.100373-4.261006,2.830686-8.496023,6.786482-10.01638,4.521747-1.737852,9.312927.195471,12.326891,3.693874,4.752111,5.515812,12.710366-2.502819,7.986228-7.986228-5.951224-6.907654-16.186407-9.49726-24.660533-6.076448-8.345991,3.369086-14.29692,12.253352-13.694642,21.346126.600211,9.061721,6.991615,17.365944,15.817277,19.862645,9.25445,2.618043,18.68893-1.499345,24.194701-9.037841,1.799957-2.464509.417059-6.297402-2.025933-7.726289Z"/>
    <path class="cls-4" d="m371.044909,30.905031c-7.285138-6.591221-18.269087-5.363629-24.37646,1.087349-3.118049-2.947977-7.173374-4.752575-11.744527-4.314125-7.860583.753955-13.286908,7.575835-15.388109,14.724274-2.346374,7.982599-.849602,16.470142.679572,24.450041,1.366486,7.130592,12.254027,4.111397,10.89079-3.002446-.97529-5.08926-2.04399-10.463183-1.317755-15.6629.429716-3.076871,2.413036-9.553374,6.589576-9.355962,4.619715.218381,5.621754,7.13363,5.763179,10.471411.255594,6.032822-.328289,11.902195,1.098319,17.849496,1.721524,7.176581,12.089819,4.035706,10.890748-3.002446-.069911-.410435-.139821-.82087-.209774-1.231305-.033922-.199015-.083581-.39128-.144209-.578398-.935039-5.784443.02966-11.770475-.762731-17.569769.105604-.271289.190999-.552872.23492-.852303.419844-2.862751,1.872737-5.717781,5.027408-6.238714,2.867519-.473553,5.505771,1.17325,6.696994,3.726319,3.212768,6.885589-1.102327,15.625687-2.27005,22.512584-.509289,3.0035.79488,6.081257,3.944151,6.946597,2.711243.744968,6.433891-.920568,6.946597-3.944193,1.989648-11.734022,8.099427-26.381761-2.548638-36.01551Z"/>
    <path class="cls-2" d="m529.374932,31.748262c.60232,11.687105.877153,23.384083.835806,35.086672-.025694,7.268262,11.268443,7.278092,11.294179,0,.041389-11.702589-.233486-23.399567-.835764-35.086672-.372716-7.231935-11.669174-7.276194-11.294222,0Z"/>
    <path class="cls-2" d="m570.461602,65.333691c-1.924969-11.056348-2.793558-22.228427-2.749974-33.448898.028226-7.268388-11.265911-7.278008-11.294179,0-.047549,12.234028,1.055284,24.400467,3.153405,36.451344.523465,3.006749,4.209407,4.696376,6.946597,3.944151,3.176146-.87285,4.469135-3.931156,3.944151-6.946597Z"/>
  </g>
  <g>
    <circle class="cls-5" cx="53.155675" cy="67.457977" r="53.155675"/>
    <circle class="cls-3" cx="76.012529" cy="18.172337" r="18.172337"/>
    <g>
      <path class="cls-2" d="m58.182751,61.31727c.030837.22487.052333.452687.052333.686046,0,2.769783-2.245341,5.015146-5.015146,5.015146-2.726726,0-4.940379-2.177295-5.008708-4.887587h-.006438v-3.186461H13.108501c-.075924,1.009733-.11501,2.029746-.11501,3.058902,0,22.216449,18.009998,40.226469,40.226447,40.226469s40.226469-18.010019,40.226469-40.226469c0-1.029156-.039086-2.049169-.11501-3.058902h-35.148645v2.372856Z"/>
      <path class="cls-2" d="m48.204792,62.130875h.006438c-.001069-.042796-.006438-.084501-.006438-.127559v.127559Z"/>
    </g>
    <ellipse class="cls-1" cx="30.657155" cy="58.944414" rx="17.584733" ry="3.186469"/>
    <ellipse class="cls-1" cx="75.78931" cy="58.944414" rx="17.607365" ry="3.186469"/>
    <g>
      <path class="cls-4" d="m12.390339,36.344661c-.157937.982192-.242984,1.988739-.242984,3.015473,0,10.41334,8.441667,18.855007,18.854985,18.855007s18.855007-8.441667,18.855007-18.855007c0-1.026734-.085046-2.033281-.242984-3.015473H12.390339Z"/>
      <ellipse class="cls-7" cx="31.110777" cy="36.344674" rx="18.701427" ry="1.286525"/>
    </g>
    <g>
      <circle class="cls-8" cx="30.581687" cy="18.172337" r="18.172337"/>
      <circle class="cls-6" cx="37.65324" cy="10.833154" r="5.406692"/>
    </g>
    <g>
      <path class="cls-4" d="m57.177297,36.344661c-.157937.982192-.242984,1.988739-.242984,3.015473,0,10.41334,8.441667,18.855007,18.854985,18.855007s18.855007-8.441667,18.855007-18.855007c0-1.026734-.085046-2.033281-.242984-3.015473h-37.224024Z"/>
      <ellipse class="cls-7" cx="75.897736" cy="36.344674" rx="18.701427" ry="1.286525"/>
    </g>
    <g>
      <circle class="cls-8" cx="75.368646" cy="18.172337" r="18.172337"/>
      <circle class="cls-6" cx="82.440199" cy="10.833154" r="5.406692"/>
    </g>
  </g>
  <g>
    <path class="cls-2" d="m206.911262,109.044131v-1.580078c-3.660156,1.738281-6.839355,1.724609-9.537598-.039062-2.699219-1.763672-4.047852-4.686523-4.047852-8.767578,0-3.422852,1.013184-5.950195,3.040527-7.583008,2.027344-1.631836,4.621094-2.421875,7.780273-2.369141,2.65918,0,5.357422.579102,8.096191,1.737305v18.404297c0,2.473633-.552734,4.507812-1.658691,6.101562-1.105957,1.592773-2.521484,2.638672-4.245605,3.139648-1.724609.5-3.61377.612305-5.666992.335938-2.053711-.277344-4.055176-.942383-6.00293-1.995117l.710449-4.264648c.948242.499023,1.915527.927734,2.902832,1.283203s2.007324.585938,3.061035.691406c1.052734.104492,1.980469.032227,2.78418-.217773.802734-.25,1.467285-.790039,1.994141-1.619141.526367-.829102.790039-1.915039.790039-3.257812Zm-.079102-6.12207v-9.280273c-1.026855-.262695-2.106445-.395508-3.238281-.395508-3.080566,0-4.673828,1.791016-4.778809,5.371094-.026367,1.632812.355469,2.922852,1.145508,3.871094.789551.947266,1.783203,1.427734,2.981445,1.441406,1.197754.013672,2.494629-.322266,3.890137-1.007812Z"/>
    <path class="cls-2" d="m226.144172,88.388857c3.396484,0,5.838379,1.027344,7.326172,3.081055,1.486816,2.052734,1.862305,4.738281,1.125488,8.055664h-12.914551c.184082,2.633789,1.869141,4.068359,5.055176,4.305664,1.105957.052734,1.948242.039062,2.527832-.040039,1.790039-.209961,3.303711-.591797,4.541504-1.145508l.631836,4.02832c-2.395996,1.132812-4.857422,1.698242-7.385254,1.698242-3.238281.052734-5.864746-.841797-7.878906-2.685547-2.01416-1.842773-3.020996-4.356445-3.020996-7.542969.052246-3.132812,1.046387-5.541992,2.981445-7.227539,1.935547-1.68457,4.271484-2.527344,7.010254-2.527344Zm0,4.225586c-1.105957,0-2.067383.296875-2.882812.888672-.816406.592773-1.330078,1.416016-1.540527,2.46875h8.372559c.052734-1.158203-.302734-2.007812-1.066406-2.547852-.763672-.539062-1.724609-.80957-2.882812-.80957Z"/>
    <path class="cls-2" d="m237.635871,91.982607v-3.198242c.763672-.210938,1.546875-.335938,2.350098-.375977.802734-.039062,1.599609.013672,2.38916.158203.790039.145508,1.435059.494141,1.935547,1.046875.499512.552734.75,1.290039.75,2.210938.447754-1.130859,1.20459-1.980469,2.270996-2.546875,1.066406-.56543,2.283691-.848633,3.65332-.848633,1.605469,0,2.863281.290039,3.771484.868164.908203.580078,1.599609,1.474609,2.073242,2.685547.579102-1.18457,1.45459-2.073242,2.626465-2.666016,1.170898-.591797,2.468262-.887695,3.890137-.887695,1.289551,0,2.382324.210938,3.277832.631836.894531.420898,1.572754,1.033203,2.033691,1.835938.460449.803711.776367,1.678711.948242,2.625977.170898.948242.242676,2.053711.216797,3.318359v5.212891c0,.973633.131836,1.645508.39502,2.013672.263184.369141.869141.527344,1.816895.474609v3.198242c-1.395996.316406-2.672852.454102-3.831055.415039-1.158691-.040039-2.099609-.466797-2.82373-1.283203-.724609-.816406-1.085938-2.000977-1.085938-3.554688v-6.476562c.052246-1.237305-.204102-2.21875-.77002-2.942383-.566406-.724609-1.336914-1.085938-2.310547-1.085938-1.000977,0-1.830078.368164-2.487793,1.105469-.658691.737305-1.000977,1.724609-1.026855,2.961914v11.018555h-5.371094v-11.018555c0-1.263672-.303223-2.257812-.908691-2.981445-.605957-.724609-1.421387-1.085938-2.448242-1.085938-1.053711.026367-1.929199.408203-2.626465,1.144531-.697754.737305-1.046387,1.751953-1.046387,3.041016v10.900391h-5.529297v-13.111328c0-1.131836-.125-1.896484-.375-2.291016-.250488-.394531-.836426-.56543-1.757812-.513672Z"/>
    <path class="cls-2" d="m294.031379,95.734561h-5.25293c-.31543-.869141-.835938-1.526367-1.55957-1.974609-.724609-.447266-1.53418-.657227-2.428711-.631836-1.290527.026367-2.416016.494141-3.376465,1.402344-.961426.908203-1.441895,2.166016-1.441895,3.771484,0,1.632812.480469,2.916016,1.441895,3.850586.960449.93457,2.085938,1.401367,3.376465,1.401367.921387,0,1.75-.249023,2.488281-.75.736328-.5,1.263672-1.237305,1.579102-2.211914h5.25293c-.369141,2.422852-1.455078,4.304688-3.258789,5.647461s-3.876953,2.027344-6.219727,2.053711c-2.738281.026367-5.114258-.841797-7.128418-2.606445-2.01416-1.763672-3.020996-4.225586-3.020996-7.384766,0-3.132812,1.013184-5.588867,3.041016-7.365234,2.026855-1.777344,4.409668-2.666016,7.147949-2.666016,2.290527,0,4.317871.651367,6.081543,1.955078,1.763672,1.302734,2.856445,3.139648,3.27832,5.508789Z"/>
    <path class="cls-2" d="m303.232551,95.931826h1.382812c2.027344,0,3.449219-.631836,4.265625-1.895508.81543-1.263672,1.223633-3.000977,1.223633-5.212891h5.212891c.105469,4.686523-1.381836,7.859375-4.461914,9.517578l5.370117,8.964844v.553711h-5.607422l-4.462891-7.780273c-.394531.131836-.93457.197266-1.619141.197266h-1.303711v7.583008h-5.489258v-28.396484h5.489258v16.46875Z"/>
    <path class="cls-2" d="m333.406379,88.86249h5.529297v13.30957c0,.974609.098633,1.613281.295898,1.915039.197266.303711.691406.428711,1.481445.375977l.039062,3.435547c-.763672.183594-1.507812.302734-2.231445.355469-.724609.052734-1.460938.019531-2.211914-.098633-.75-.118164-1.355469-.43457-1.816406-.948242-.460938-.512695-.691406-1.204102-.691406-2.073242-.5,1.027344-1.30957,1.791016-2.428711,2.291016s-2.336914.75-3.652344.75c-4.713867,0-7.069336-2.803711-7.069336-8.412109v-5.054688c0-.526367-.013672-.921875-.040039-1.185547-.026367-.262695-.098633-.519531-.216797-.769531-.119141-.25-.316406-.415039-.592773-.494141s-.651367-.104492-1.125-.079102v-3.238281c1.289062-.262695,2.494141-.387695,3.613281-.375,1.119141.013672,2.053711.415039,2.803711,1.205078.750977.789062,1.125977,1.93457,1.125977,3.435547v6.555664c-.053711,1.290039.229492,2.291016.848633,3.001953.618164.710938,1.427734,1.066406,2.428711,1.066406,1.131836.026367,2.067383-.348633,2.804688-1.125977.736328-.776367,1.105469-1.796875,1.105469-3.060547v-10.782227Z"/>
    <path class="cls-2" d="m358.168097,88.86249h5.529297v13.30957c0,.974609.098633,1.613281.295898,1.915039.197266.303711.691406.428711,1.481445.375977l.039062,3.435547c-.763672.183594-1.507812.302734-2.231445.355469-.724609.052734-1.460938.019531-2.211914-.098633-.75-.118164-1.355469-.43457-1.816406-.948242-.460938-.512695-.691406-1.204102-.691406-2.073242-.5,1.027344-1.30957,1.791016-2.428711,2.291016s-2.336914.75-3.652344.75c-4.713867,0-7.069336-2.803711-7.069336-8.412109v-5.054688c0-.526367-.013672-.921875-.040039-1.185547-.026367-.262695-.098633-.519531-.216797-.769531-.119141-.25-.316406-.415039-.592773-.494141s-.651367-.104492-1.125-.079102v-3.238281c1.289062-.262695,2.494141-.387695,3.613281-.375,1.119141.013672,2.053711.415039,2.803711,1.205078.750977.789062,1.125977,1.93457,1.125977,3.435547v6.555664c-.053711,1.290039.229492,2.291016.848633,3.001953.618164.710938,1.427734,1.066406,2.428711,1.066406,1.131836.026367,2.067383-.348633,2.804688-1.125977.736328-.776367,1.105469-1.796875,1.105469-3.060547v-10.782227Zm-10.268555-8.609375l3.672852-.355469c.158203,1.500977,1.080078,2.264648,2.764648,2.291016,1.738281,0,2.738281-.763672,3.001953-2.291016,1.447266.105469,2.619141.224609,3.514648.355469-.131836,1.870117-.770508,3.350586-1.915039,4.443359-1.145508,1.092773-2.666016,1.638672-4.561523,1.638672-1.84375,0-3.357422-.545898-4.541992-1.638672s-1.830078-2.573242-1.935547-4.443359Z"/>
    <path class="cls-2" d="m385.419074,99.762881c-.053711,1.290039.229492,2.291016.848633,3.001953.618164.710938,1.427734,1.066406,2.428711,1.066406,1.106445,0,2.040039-.381836,2.804688-1.145508.762695-.763672,1.145508-1.777344,1.145508-3.041016v-10.782227h5.489258v14.020508c0,.895508.164062,1.455078.493164,1.678711s1.033203.322266,2.113281.295898l-.316406,7.819336h-4.225586v-4.501953c-1.026367.105469-1.777344-.118164-2.250977-.670898-.473633-.553711-.698242-1.474609-.670898-2.764648-1.264648,2.290039-3.383789,3.435547-6.358398,3.435547-4.713867,0-7.069336-2.803711-7.069336-8.412109v-5.054688c0-.526367-.013672-.921875-.040039-1.185547-.026367-.262695-.098633-.519531-.216797-.769531-.119141-.25-.316406-.415039-.592773-.494141s-.651367-.104492-1.125-.079102v-3.238281c1.289062-.262695,2.494141-.387695,3.613281-.375,1.119141.013672,2.053711.415039,2.803711,1.205078.750977.789062,1.125977,1.93457,1.125977,3.435547v6.555664Z"/>
    <path class="cls-2" d="m413.299933,88.388857c3.396484,0,5.838867,1.027344,7.326172,3.081055,1.487305,2.052734,1.862305,4.738281,1.125977,8.055664h-12.914062c.183594,2.633789,1.869141,4.068359,5.054688,4.305664,1.105469.052734,1.948242.039062,2.527344-.040039,1.790039-.209961,3.303711-.591797,4.541992-1.145508l.631836,4.02832c-2.396484,1.132812-4.857422,1.698242-7.384766,1.698242-3.239258.052734-5.865234-.841797-7.878906-2.685547-2.014648-1.842773-3.021484-4.356445-3.021484-7.542969.052734-3.132812,1.046875-5.541992,2.981445-7.227539,1.935547-1.68457,4.271484-2.527344,7.009766-2.527344Zm0,4.225586c-1.105469,0-2.066406.296875-2.882812.888672-.816406.592773-1.329102,1.416016-1.540039,2.46875h8.373047c.051758-1.158203-.303711-2.007812-1.066406-2.547852-.764648-.539062-1.724609-.80957-2.883789-.80957Z"/>
    <path class="cls-2" d="m439.759894,88.86249h5.332031v13.151367c0,1.000977.111328,1.685547.335938,2.053711.222656.369141.783203.527344,1.677734.474609v3.238281c-1.290039.262695-2.481445.380859-3.573242.355469-1.09375-.027344-1.995117-.427734-2.706055-1.205078-.710938-.776367-1.066406-1.915039-1.066406-3.416016v-3.120117h-7.582031v7.503906h-5.332031v-13.19043c0-1.000977-.112305-1.68457-.335938-2.053711-.223633-.368164-.783203-.526367-1.677734-.474609v-3.238281c1.289062-.262695,2.481445-.380859,3.574219-.355469,1.091797.026367,1.994141.428711,2.705078,1.205078s1.066406,1.915039,1.066406,3.416016v2.448242h7.582031v-6.792969Z"/>
    <path class="cls-2" d="m449.554816,91.982607v-3.198242c.763672-.210938,1.546875-.335938,2.349609-.375977.803711-.039062,1.599609.013672,2.389648.158203.790039.145508,1.43457.494141,1.935547,1.046875.5.552734.75,1.290039.75,2.210938.447266-1.130859,1.205078-1.980469,2.271484-2.546875,1.06543-.56543,2.283203-.848633,3.652344-.848633,1.605469,0,2.863281.290039,3.771484.868164.90918.580078,1.599609,1.474609,2.074219,2.685547.578125-1.18457,1.454102-2.073242,2.625977-2.666016,1.170898-.591797,2.467773-.887695,3.889648-.887695,1.290039,0,2.382812.210938,3.27832.631836.894531.420898,1.573242,1.033203,2.03418,1.835938.459961.803711.776367,1.678711.947266,2.625977.170898.948242.243164,2.053711.217773,3.318359v5.212891c0,.973633.130859,1.645508.394531,2.013672.262695.369141.869141.527344,1.816406.474609v3.198242c-1.395508.316406-2.671875.454102-3.830078.415039-1.15918-.040039-2.100586-.466797-2.824219-1.283203-.724609-.816406-1.085938-2.000977-1.085938-3.554688v-6.476562c.052734-1.237305-.204102-2.21875-.770508-2.942383-.566406-.724609-1.335938-1.085938-2.30957-1.085938-1.000977,0-1.831055.368164-2.488281,1.105469-.658203.737305-1.000977,1.724609-1.027344,2.961914v11.018555h-5.371094v-11.018555c0-1.263672-.302734-2.257812-.908203-2.981445-.605469-.724609-1.421875-1.085938-2.448242-1.085938-1.053711.026367-1.928711.408203-2.626953,1.144531-.697266.737305-1.045898,1.751953-1.045898,3.041016v10.900391h-5.529297v-13.111328c0-1.131836-.125-1.896484-.375-2.291016-.250977-.394531-.835938-.56543-1.757812-.513672Z"/>
    <path class="cls-2" d="m492.64173,91.785342c.499023-1.131836,1.302734-1.994141,2.408203-2.586914,1.106445-.591797,2.303711-.888672,3.594727-.888672,2.658203,0,4.751953.967773,6.279297,2.90332,1.526367,1.93457,2.290039,4.271484,2.290039,7.009766,0,1.842773-.394531,3.521484-1.18457,5.035156-.790039,1.514648-1.816406,2.672852-3.080078,3.475586-1.263672.803711-2.706055,1.283203-4.325195,1.441406s-3.257812-.210938-4.916992-1.105469v10.583984h-5.52832v-23.478516c0-.091797-.006836-.243164-.019531-.454102-.013672-.210938-.03418-.348633-.05957-.415039-.026367-.06543-.066406-.170898-.118164-.31543-.053711-.144531-.125977-.243164-.217773-.296875-.092773-.052734-.197266-.111328-.31543-.177734-.119141-.06543-.270508-.098633-.455078-.098633h-.591797l-.040039-3.672852c.737305-.158203,1.435547-.243164,2.09375-.256836.657227-.012695,1.323242.053711,1.994141.197266.671875.145508,1.205078.481445,1.599609,1.007812s.592773,1.223633.592773,2.092773Zm.908203,5.726562v4.976562c1.368164.710938,2.652344,1.045898,3.850586,1.006836,1.197266-.040039,2.204102-.539062,3.020508-1.500977.816406-.960938,1.224609-2.217773,1.224609-3.771484,0-1.369141-.362305-2.553711-1.085938-3.554688-.724609-1-1.744141-1.500977-3.060547-1.500977-1.18457.027344-2.132812.461914-2.84375,1.303711-.710938.842773-1.080078,1.856445-1.105469,3.041016Z"/>
  </g>
</svg>